<svg width="800" height="500" viewBox="0 0 800 500" fill="none" xmlns="http://www.w3.org/2000/svg">
<g clip-path="url(#clip0_1_469)">
<rect width="800" height="500" rx="30" transform="matrix(1 0 0 -1 0 500)" fill="url(#paint0_linear_1_469)"/>
<g clip-path="url(#clip1_1_469)" filter="url(#filter0_d_1_469)">
<path d="M106 30H34C31.7909 30 30 31.7909 30 34V106C30 108.209 31.7909 110 34 110H106C108.209 110 110 108.209 110 106V34C110 31.7909 108.209 30 106 30Z" fill="url(#paint1_linear_1_469)"/>
<mask id="mask0_1_469" style="mask-type:luminance" maskUnits="userSpaceOnUse" x="34" y="73" width="33" height="33">
<path d="M62.4 73.6C64.6091 73.6 66.4 75.3909 66.4 77.6V102C66.4 104.209 64.6091 106 62.4 106H38C35.7909 106 34 104.209 34 102V77.6C34 75.3909 35.7909 73.6 38 73.6H62.4Z" fill="white"/>
</mask>
<g mask="url(#mask0_1_469)">
<path d="M62.4 69.6C66.8182 69.6 70.4 73.1818 70.4 77.6V98C70.4 102.418 66.8182 106 62.4 106C62.4 106 62.4 104.209 62.4 102V77.6V69.6ZM34 77.6C34 73.1818 37.5817 69.6 42 69.6H62.4C66.8182 69.6 70.4 73.1818 70.4 77.6H62.4H38C35.7909 77.6 34 77.6 34 77.6Z" fill="white"/>
</g>
<mask id="mask1_1_469" style="mask-type:luminance" maskUnits="userSpaceOnUse" x="34" y="80" width="26" height="26">
<path d="M57.2 80.8C58.3046 80.8 59.2 81.6954 59.2 82.8V104C59.2 105.105 58.3046 106 57.2 106H36C34.8954 106 34 105.105 34 104V82.8C34 81.6954 34.8954 80.8 36 80.8H57.2Z" fill="white"/>
</mask>
<g mask="url(#mask1_1_469)">
<path d="M57.2 76.8C60.5137 76.8 63.2 79.4863 63.2 82.8V100C63.2 103.314 60.5137 106 57.2 106H55.2C55.2 106 55.2 105.105 55.2 104V84.8L57.2 76.8ZM34 82.8C34 79.4863 36.6863 76.8 40 76.8H57.2C60.5137 76.8 63.2 79.4863 63.2 82.8L55.2 84.8H36C34.8954 84.8 34 84.8 34 84.8V82.8Z" fill="white"/>
</g>
<mask id="mask2_1_469" style="mask-type:luminance" maskUnits="userSpaceOnUse" x="34" y="88" width="18" height="18">
<path d="M50 88C51.1046 88 52 88.8954 52 90V104C52 105.105 51.1046 106 50 106H36C34.8954 106 34 105.105 34 104V90C34 88.8954 34.8954 88 36 88H50Z" fill="white"/>
</mask>
<g mask="url(#mask2_1_469)">
<path d="M48 90V104H56V90H48ZM50 102H36V110H50V102ZM38 104V90H30V104H38ZM36 92H50V84H36V92ZM38 90C38 91.1046 37.1046 92 36 92V84C32.6863 84 30 86.6863 30 90H38ZM36 102C37.1046 102 38 102.895 38 104H30C30 107.314 32.6863 110 36 110V102ZM48 104C48 102.895 48.8954 102 50 102V110C53.3137 110 56 107.314 56 104H48ZM56 90C56 86.6863 53.3137 84 50 84V92C48.8954 92 48 91.1046 48 90H56Z" fill="white"/>
</g>
<mask id="mask3_1_469" style="mask-type:luminance" maskUnits="userSpaceOnUse" x="34" y="34" width="36" height="36">
<path d="M34 36C34 34.8954 34.8954 34 36 34H68C69.1046 34 70 34.8954 70 36V68C70 69.1046 69.1046 70 68 70H36C34.8954 70 34 69.1046 34 68V36Z" fill="white"/>
</mask>
<g mask="url(#mask3_1_469)">
<path d="M30 36C30 32.6863 32.6863 30 36 30H64C67.3137 30 70 32.6863 70 36V38C70 38 69.1046 38 68 38H38L30 36ZM36 70C32.6863 70 30 67.3137 30 64V36C30 32.6863 32.6863 30 36 30L38 38V68C38 69.1046 38 70 38 70H36Z" fill="white"/>
</g>
<mask id="mask4_1_469" style="mask-type:luminance" maskUnits="userSpaceOnUse" x="41" y="41" width="29" height="29">
<path d="M41.2 43.2C41.2 42.0955 42.0954 41.2 43.2 41.2H68C69.1045 41.2 70 42.0955 70 43.2V68C70 69.1046 69.1045 70 68 70H43.2C42.0954 70 41.2 69.1046 41.2 68V43.2Z" fill="white"/>
</mask>
<g mask="url(#mask4_1_469)">
<path d="M37.2 43.2C37.2 39.8863 39.8863 37.2 43.2 37.2H64C67.3136 37.2 70 39.8863 70 43.2V45.2C70 45.2 69.1045 45.2 68 45.2H45.2L37.2 43.2ZM43.2 70C39.8863 70 37.2 67.3137 37.2 64V43.2C37.2 39.8863 39.8863 37.2 43.2 37.2L45.2 45.2V68C45.2 69.1046 45.2 70 45.2 70H43.2Z" fill="white"/>
</g>
<mask id="mask5_1_469" style="mask-type:luminance" maskUnits="userSpaceOnUse" x="48" y="48" width="22" height="22">
<path d="M48.3999 50.4C48.3999 49.2954 49.2953 48.4 50.3999 48.4H67.9999C69.1045 48.4 69.9999 49.2954 69.9999 50.4V68C69.9999 69.1046 69.1045 70 67.9999 70H50.3999C49.2953 70 48.3999 69.1046 48.3999 68V50.4Z" fill="white"/>
</mask>
<g mask="url(#mask5_1_469)">
<path d="M50.3999 52.4H67.9999V44.4H50.3999V52.4ZM65.9999 50.4V68H73.9999V50.4H65.9999ZM67.9999 66H50.3999V74H67.9999V66ZM52.3999 68V50.4H44.3999V68H52.3999ZM50.3999 66C51.5045 66 52.3999 66.8954 52.3999 68H44.3999C44.3999 71.3137 47.0862 74 50.3999 74V66ZM65.9999 68C65.9999 66.8954 66.8953 66 67.9999 66V74C71.3136 74 73.9999 71.3137 73.9999 68H65.9999ZM67.9999 52.4C66.8953 52.4 65.9999 51.5046 65.9999 50.4H73.9999C73.9999 47.0863 71.3136 44.4 67.9999 44.4V52.4ZM50.3999 44.4C47.0862 44.4 44.3999 47.0863 44.3999 50.4H52.3999C52.3999 51.5046 51.5045 52.4 50.3999 52.4V44.4Z" fill="white"/>
</g>
<mask id="mask6_1_469" style="mask-type:luminance" maskUnits="userSpaceOnUse" x="73" y="34" width="33" height="33">
<path d="M77.6001 66.4C75.391 66.4 73.6001 64.6091 73.6001 62.4V38C73.6001 35.7909 75.391 34 77.6001 34H102C104.209 34 106 35.7909 106 38V62.4C106 64.6091 104.209 66.4 102 66.4H77.6001Z" fill="white"/>
</mask>
<g mask="url(#mask6_1_469)">
<path d="M77.6001 70.4C73.1819 70.4 69.6001 66.8182 69.6001 62.4V42C69.6001 37.5817 73.1819 34 77.6001 34C77.6001 34 77.6001 35.7909 77.6001 38V62.4V70.4ZM106 62.4C106 66.8182 102.418 70.4 98.0001 70.4H77.6001C73.1819 70.4 69.6001 66.8182 69.6001 62.4H77.6001H102C104.209 62.4 106 62.4 106 62.4Z" fill="white"/>
</g>
<mask id="mask7_1_469" style="mask-type:luminance" maskUnits="userSpaceOnUse" x="80" y="34" width="26" height="26">
<path d="M82.8 59.2C81.6955 59.2 80.8 58.3046 80.8 57.2V36C80.8 34.8954 81.6955 34 82.8 34H104C105.105 34 106 34.8954 106 36V57.2C106 58.3046 105.105 59.2 104 59.2H82.8Z" fill="white"/>
</mask>
<g mask="url(#mask7_1_469)">
<path d="M82.8 63.2C79.4864 63.2 76.8 60.5137 76.8 57.2V40C76.8 36.6863 79.4864 34 82.8 34H84.8C84.8 34 84.8 34.8954 84.8 36V55.2L82.8 63.2ZM106 57.2C106 60.5137 103.314 63.2 100 63.2H82.8C79.4864 63.2 76.8 60.5137 76.8 57.2L84.8 55.2H104C105.105 55.2 106 55.2 106 55.2V57.2Z" fill="white"/>
</g>
<mask id="mask8_1_469" style="mask-type:luminance" maskUnits="userSpaceOnUse" x="88" y="34" width="18" height="18">
<path d="M90 52C88.8954 52 88 51.1046 88 50V36C88 34.8954 88.8954 34 90 34H104C105.105 34 106 34.8954 106 36V50C106 51.1046 105.105 52 104 52H90Z" fill="white"/>
</mask>
<g mask="url(#mask8_1_469)">
<path d="M92 50V36H84V50H92ZM90 38H104V30H90V38ZM102 36V50H110V36H102ZM104 48H90V56H104V48ZM102 50C102 48.8954 102.895 48 104 48V56C107.314 56 110 53.3137 110 50H102ZM104 38C102.895 38 102 37.1046 102 36H110C110 32.6863 107.314 30 104 30V38ZM92 36C92 37.1046 91.1046 38 90 38V30C86.6863 30 84 32.6863 84 36H92ZM84 50C84 53.3137 86.6863 56 90 56V48C91.1046 48 92 48.8954 92 50H84Z" fill="white"/>
</g>
<mask id="mask9_1_469" style="mask-type:luminance" maskUnits="userSpaceOnUse" x="70" y="70" width="36" height="36">
<path d="M106 104C106 105.105 105.105 106 104 106H72C70.8954 106 70 105.105 70 104V72C70 70.8954 70.8954 70 72 70H104C105.105 70 106 70.8954 106 72V104Z" fill="white"/>
</mask>
<g mask="url(#mask9_1_469)">
<path d="M110 104C110 107.314 107.314 110 104 110H76C72.6863 110 70 107.314 70 104V102C70 102 70.8954 102 72 102H102L110 104ZM104 70C107.314 70 110 72.6863 110 76V104C110 107.314 107.314 110 104 110L102 102V72C102 70.8954 102 70 102 70H104Z" fill="white"/>
</g>
<mask id="mask10_1_469" style="mask-type:luminance" maskUnits="userSpaceOnUse" x="70" y="70" width="29" height="29">
<path d="M98.8 96.8C98.8 97.9046 97.9046 98.8 96.8 98.8H72C70.8954 98.8 70 97.9046 70 96.8V72C70 70.8954 70.8954 70 72 70H96.8C97.9046 70 98.8 70.8954 98.8 72V96.8Z" fill="white"/>
</mask>
<g mask="url(#mask10_1_469)">
<path d="M102.8 96.8C102.8 100.114 100.114 102.8 96.8 102.8H76C72.6863 102.8 70 100.114 70 96.8V94.8C70 94.8 70.8954 94.8 72 94.8H94.8L102.8 96.8ZM96.8 70C100.114 70 102.8 72.6863 102.8 76V96.8C102.8 100.114 100.114 102.8 96.8 102.8L94.8 94.8V72C94.8 70.8954 94.8 70 94.8 70H96.8Z" fill="white"/>
</g>
<mask id="mask11_1_469" style="mask-type:luminance" maskUnits="userSpaceOnUse" x="70" y="70" width="22" height="22">
<path d="M91.6 89.6C91.6 90.7046 90.7046 91.6 89.6 91.6H72C70.8954 91.6 70 90.7046 70 89.6V72C70 70.8954 70.8954 70 72 70H89.6C90.7046 70 91.6 70.8954 91.6 72V89.6Z" fill="white"/>
</mask>
<g mask="url(#mask11_1_469)">
<path d="M89.6 87.6H72V95.6H89.6V87.6ZM74 89.6V72H66V89.6H74ZM72 74H89.6V66H72V74ZM87.6 72V89.6H95.6V72H87.6ZM89.6 74C88.4954 74 87.6 73.1046 87.6 72H95.6C95.6 68.6863 92.9137 66 89.6 66V74ZM74 72C74 73.1046 73.1046 74 72 74V66C68.6863 66 66 68.6863 66 72H74ZM72 87.6C73.1046 87.6 74 88.4954 74 89.6H66C66 92.9137 68.6863 95.6 72 95.6V87.6ZM89.6 95.6C92.9137 95.6 95.6 92.9137 95.6 89.6H87.6C87.6 88.4954 88.4954 87.6 89.6 87.6V95.6Z" fill="white"/>
</g>
</g>
<g filter="url(#filter1_d_1_469)">
<path d="M135.636 82.7273V106H132.818V82.7273H135.636ZM143.605 95.5V106H140.923V88.5455H143.514V91.2727H143.741C144.151 90.3864 144.772 89.6742 145.605 89.1364C146.438 88.5909 147.514 88.3182 148.832 88.3182C150.014 88.3182 151.048 88.5606 151.935 89.0455C152.821 89.5227 153.51 90.25 154.003 91.2273C154.495 92.197 154.741 93.4242 154.741 94.9091V106H152.06V95.0909C152.06 93.7197 151.704 92.6515 150.991 91.8864C150.279 91.1136 149.302 90.7273 148.06 90.7273C147.204 90.7273 146.438 90.9129 145.764 91.2841C145.098 91.6553 144.571 92.197 144.185 92.9091C143.798 93.6212 143.605 94.4848 143.605 95.5ZM167.415 88.5455V90.8182H158.006V88.5455H167.415ZM160.824 106V86.1364C160.824 85.1364 161.059 84.303 161.528 83.6364C161.998 82.9697 162.608 82.4697 163.358 82.1364C164.108 81.803 164.9 81.6364 165.733 81.6364C166.392 81.6364 166.93 81.6894 167.347 81.7955C167.763 81.9015 168.074 82 168.278 82.0909L167.506 84.4091C167.369 84.3636 167.18 84.3068 166.938 84.2386C166.703 84.1705 166.392 84.1364 166.006 84.1364C165.119 84.1364 164.479 84.3598 164.085 84.8068C163.699 85.2538 163.506 85.9091 163.506 86.7727V106H160.824ZM177.545 106.364C175.97 106.364 174.587 105.989 173.398 105.239C172.216 104.489 171.292 103.439 170.625 102.091C169.966 100.742 169.636 99.1667 169.636 97.3636C169.636 95.5455 169.966 93.9583 170.625 92.6023C171.292 91.2462 172.216 90.1932 173.398 89.4432C174.587 88.6932 175.97 88.3182 177.545 88.3182C179.121 88.3182 180.5 88.6932 181.682 89.4432C182.871 90.1932 183.795 91.2462 184.455 92.6023C185.121 93.9583 185.455 95.5455 185.455 97.3636C185.455 99.1667 185.121 100.742 184.455 102.091C183.795 103.439 182.871 104.489 181.682 105.239C180.5 105.989 179.121 106.364 177.545 106.364ZM177.545 103.955C178.742 103.955 179.727 103.648 180.5 103.034C181.273 102.42 181.845 101.614 182.216 100.614C182.587 99.6136 182.773 98.5303 182.773 97.3636C182.773 96.197 182.587 95.1098 182.216 94.1023C181.845 93.0947 181.273 92.2803 180.5 91.6591C179.727 91.0379 178.742 90.7273 177.545 90.7273C176.348 90.7273 175.364 91.0379 174.591 91.6591C173.818 92.2803 173.246 93.0947 172.875 94.1023C172.504 95.1098 172.318 96.197 172.318 97.3636C172.318 98.5303 172.504 99.6136 172.875 100.614C173.246 101.614 173.818 102.42 174.591 103.034C175.364 103.648 176.348 103.955 177.545 103.955Z" fill="white"/>
</g>
<g clip-path="url(#clip2_1_469)">
<path d="M139.716 138.091C139.631 137.371 139.285 136.812 138.679 136.415C138.073 136.017 137.33 135.818 136.449 135.818C135.805 135.818 135.241 135.922 134.759 136.131C134.28 136.339 133.906 136.625 133.636 136.99C133.371 137.355 133.239 137.769 133.239 138.233C133.239 138.621 133.331 138.955 133.516 139.234C133.705 139.509 133.946 139.739 134.24 139.923C134.534 140.103 134.841 140.252 135.163 140.371C135.485 140.484 135.781 140.577 136.051 140.648L137.528 141.045C137.907 141.145 138.329 141.282 138.793 141.457C139.261 141.633 139.709 141.872 140.135 142.175C140.566 142.473 140.921 142.857 141.2 143.325C141.48 143.794 141.619 144.369 141.619 145.051C141.619 145.837 141.413 146.547 141.001 147.182C140.594 147.816 139.998 148.321 139.212 148.695C138.43 149.069 137.481 149.256 136.364 149.256C135.322 149.256 134.42 149.088 133.658 148.751C132.9 148.415 132.304 147.946 131.868 147.345C131.437 146.744 131.193 146.045 131.136 145.25H132.955C133.002 145.799 133.187 146.254 133.509 146.614C133.835 146.969 134.247 147.234 134.744 147.409C135.246 147.58 135.786 147.665 136.364 147.665C137.036 147.665 137.64 147.556 138.175 147.338C138.71 147.116 139.134 146.808 139.446 146.415C139.759 146.017 139.915 145.553 139.915 145.023C139.915 144.54 139.78 144.147 139.51 143.844C139.24 143.541 138.885 143.295 138.445 143.105C138.004 142.916 137.528 142.75 137.017 142.608L135.227 142.097C134.091 141.77 133.191 141.304 132.528 140.697C131.866 140.091 131.534 139.298 131.534 138.318C131.534 137.504 131.754 136.794 132.195 136.188C132.64 135.577 133.236 135.103 133.984 134.767C134.737 134.426 135.578 134.256 136.506 134.256C137.443 134.256 138.277 134.424 139.006 134.76C139.735 135.091 140.313 135.546 140.739 136.124C141.17 136.701 141.397 137.357 141.42 138.091H139.716ZM149.032 138.091V139.511H143.379V138.091H149.032ZM145.027 135.477H146.703V145.875C146.703 146.348 146.771 146.704 146.909 146.94C147.051 147.172 147.231 147.329 147.449 147.409C147.671 147.485 147.905 147.523 148.152 147.523C148.336 147.523 148.488 147.513 148.606 147.494C148.725 147.471 148.819 147.452 148.89 147.438L149.231 148.943C149.118 148.986 148.959 149.028 148.755 149.071C148.552 149.118 148.294 149.142 147.981 149.142C147.508 149.142 147.044 149.04 146.589 148.837C146.139 148.633 145.765 148.323 145.467 147.906C145.173 147.49 145.027 146.964 145.027 146.33V135.477ZM154.764 149.256C154.073 149.256 153.445 149.125 152.882 148.865C152.318 148.6 151.871 148.219 151.539 147.722C151.208 147.22 151.042 146.614 151.042 145.903C151.042 145.278 151.165 144.772 151.412 144.384C151.658 143.991 151.987 143.683 152.399 143.46C152.811 143.238 153.265 143.072 153.762 142.963C154.264 142.849 154.769 142.759 155.275 142.693C155.938 142.608 156.475 142.544 156.887 142.501C157.304 142.454 157.607 142.376 157.797 142.267C157.991 142.158 158.088 141.969 158.088 141.699V141.642C158.088 140.941 157.896 140.397 157.512 140.009C157.134 139.62 156.558 139.426 155.787 139.426C154.986 139.426 154.359 139.601 153.904 139.952C153.45 140.302 153.13 140.676 152.946 141.074L151.355 140.506C151.639 139.843 152.018 139.327 152.491 138.957C152.969 138.583 153.49 138.323 154.054 138.176C154.622 138.025 155.181 137.949 155.73 137.949C156.08 137.949 156.483 137.991 156.937 138.077C157.396 138.157 157.839 138.325 158.265 138.581C158.696 138.837 159.054 139.223 159.338 139.739C159.622 140.255 159.764 140.946 159.764 141.812V149H158.088V147.523H158.002C157.889 147.759 157.699 148.013 157.434 148.283C157.169 148.553 156.816 148.782 156.376 148.972C155.936 149.161 155.398 149.256 154.764 149.256ZM155.02 147.75C155.682 147.75 156.241 147.62 156.696 147.359C157.155 147.099 157.501 146.763 157.733 146.351C157.969 145.939 158.088 145.506 158.088 145.051V143.517C158.017 143.602 157.86 143.68 157.619 143.751C157.382 143.818 157.108 143.877 156.795 143.929C156.487 143.976 156.187 144.019 155.893 144.057C155.604 144.09 155.37 144.118 155.19 144.142C154.754 144.199 154.347 144.291 153.968 144.419C153.594 144.542 153.291 144.729 153.059 144.98C152.832 145.226 152.718 145.562 152.718 145.989C152.718 146.571 152.934 147.011 153.365 147.31C153.8 147.603 154.352 147.75 155.02 147.75ZM167.567 138.091V139.511H161.914V138.091H167.567ZM163.562 135.477H165.238V145.875C165.238 146.348 165.307 146.704 165.444 146.94C165.586 147.172 165.766 147.329 165.984 147.409C166.206 147.485 166.441 147.523 166.687 147.523C166.871 147.523 167.023 147.513 167.141 147.494C167.26 147.471 167.354 147.452 167.425 147.438L167.766 148.943C167.653 148.986 167.494 149.028 167.29 149.071C167.087 149.118 166.829 149.142 166.516 149.142C166.043 149.142 165.579 149.04 165.124 148.837C164.674 148.633 164.3 148.323 164.002 147.906C163.709 147.49 163.562 146.964 163.562 146.33V135.477ZM176.964 144.54V138.091H178.64V149H176.964V147.153H176.85C176.594 147.707 176.197 148.179 175.657 148.567C175.117 148.95 174.435 149.142 173.612 149.142C172.93 149.142 172.324 148.993 171.793 148.695C171.263 148.392 170.846 147.937 170.543 147.331C170.24 146.72 170.089 145.951 170.089 145.023V138.091H171.765V144.909C171.765 145.705 171.987 146.339 172.433 146.812C172.882 147.286 173.455 147.523 174.151 147.523C174.568 147.523 174.992 147.416 175.423 147.203C175.858 146.99 176.223 146.663 176.516 146.223C176.815 145.783 176.964 145.222 176.964 144.54ZM189.437 140.534L187.931 140.96C187.837 140.709 187.697 140.465 187.512 140.229C187.333 139.987 187.086 139.788 186.774 139.632C186.461 139.476 186.061 139.398 185.574 139.398C184.906 139.398 184.35 139.552 183.904 139.859C183.464 140.162 183.244 140.548 183.244 141.017C183.244 141.434 183.395 141.763 183.699 142.004C184.002 142.246 184.475 142.447 185.119 142.608L186.738 143.006C187.714 143.242 188.44 143.605 188.919 144.092C189.397 144.575 189.636 145.198 189.636 145.96C189.636 146.585 189.456 147.144 189.096 147.636C188.741 148.129 188.244 148.517 187.605 148.801C186.966 149.085 186.222 149.227 185.375 149.227C184.262 149.227 183.341 148.986 182.612 148.503C181.883 148.02 181.421 147.314 181.227 146.386L182.818 145.989C182.969 146.576 183.256 147.016 183.677 147.31C184.103 147.603 184.66 147.75 185.346 147.75C186.127 147.75 186.748 147.584 187.207 147.253C187.671 146.917 187.903 146.514 187.903 146.045C187.903 145.667 187.77 145.349 187.505 145.094C187.24 144.833 186.833 144.639 186.284 144.511L184.466 144.085C183.467 143.848 182.733 143.482 182.264 142.984C181.8 142.482 181.568 141.855 181.568 141.102C181.568 140.487 181.741 139.942 182.086 139.469C182.437 138.995 182.913 138.624 183.514 138.354C184.12 138.084 184.806 137.949 185.574 137.949C186.653 137.949 187.501 138.186 188.116 138.659C188.736 139.133 189.177 139.758 189.437 140.534Z" fill="white"/>
<g filter="url(#filter2_d_1_469)">
<rect x="130.5" y="155.5" width="249" height="314" rx="4.5" stroke="white" shape-rendering="crispEdges"/>
</g>
</g>
<g filter="url(#filter3_d_1_469)">
<path d="M142.5 69H133.523V39.9091H142.898C145.72 39.9091 148.134 40.4915 150.142 41.6562C152.15 42.8116 153.688 44.4735 154.759 46.642C155.829 48.8011 156.364 51.3864 156.364 54.3977C156.364 57.428 155.824 60.0369 154.744 62.2244C153.665 64.4025 152.093 66.0786 150.028 67.2528C147.964 68.4176 145.455 69 142.5 69ZM137.045 65.875H142.273C144.678 65.875 146.671 65.411 148.253 64.483C149.834 63.5549 151.013 62.2339 151.79 60.5199C152.566 58.8059 152.955 56.7652 152.955 54.3977C152.955 52.0492 152.571 50.0275 151.804 48.3324C151.037 46.6278 149.891 45.321 148.366 44.4119C146.842 43.4934 144.943 43.0341 142.67 43.0341H137.045V65.875ZM170.966 69.4545C168.864 69.4545 167.05 68.9905 165.526 68.0625C164.01 67.125 162.841 65.8182 162.017 64.142C161.203 62.4564 160.795 60.4962 160.795 58.2614C160.795 56.0265 161.203 54.0568 162.017 52.3523C162.841 50.6383 163.987 49.303 165.455 48.3466C166.932 47.3807 168.655 46.8977 170.625 46.8977C171.761 46.8977 172.884 47.0871 173.991 47.4659C175.099 47.8447 176.108 48.4602 177.017 49.3125C177.926 50.1553 178.651 51.2727 179.19 52.6648C179.73 54.0568 180 55.7708 180 57.8068V59.2273H163.182V56.3295H176.591C176.591 55.0985 176.345 54 175.852 53.0341C175.369 52.0682 174.678 51.3059 173.778 50.7472C172.888 50.1884 171.837 49.9091 170.625 49.9091C169.29 49.9091 168.134 50.2405 167.159 50.9034C166.193 51.5568 165.45 52.4091 164.929 53.4602C164.408 54.5114 164.148 55.6383 164.148 56.8409V58.7727C164.148 60.4205 164.432 61.8172 165 62.9631C165.578 64.0994 166.378 64.9659 167.401 65.5625C168.423 66.1496 169.612 66.4432 170.966 66.4432C171.847 66.4432 172.642 66.3201 173.352 66.0739C174.072 65.8182 174.692 65.4394 175.213 64.9375C175.734 64.4261 176.136 63.7917 176.42 63.0341L179.659 63.9432C179.318 65.0417 178.745 66.0076 177.94 66.8409C177.135 67.6648 176.141 68.3087 174.957 68.7727C173.774 69.2273 172.443 69.4545 170.966 69.4545ZM193.338 69.4545C191.52 69.4545 189.915 68.9953 188.523 68.0767C187.131 67.1487 186.042 65.8419 185.256 64.1562C184.47 62.4612 184.077 60.4583 184.077 58.1477C184.077 55.8561 184.47 53.8674 185.256 52.1818C186.042 50.4962 187.135 49.1941 188.537 48.2756C189.938 47.357 191.558 46.8977 193.395 46.8977C194.815 46.8977 195.938 47.1345 196.761 47.608C197.595 48.072 198.229 48.6023 198.665 49.1989C199.11 49.786 199.455 50.2689 199.702 50.6477H199.986V39.9091H203.338V69H200.099V65.6477H199.702C199.455 66.0455 199.105 66.5473 198.651 67.1534C198.196 67.75 197.547 68.285 196.705 68.7585C195.862 69.2225 194.74 69.4545 193.338 69.4545ZM193.793 66.4432C195.137 66.4432 196.274 66.0928 197.202 65.392C198.13 64.6818 198.835 63.7017 199.318 62.4517C199.801 61.1922 200.043 59.7386 200.043 58.0909C200.043 56.4621 199.806 55.0369 199.332 53.8153C198.859 52.5843 198.158 51.6278 197.23 50.946C196.302 50.2547 195.156 49.9091 193.793 49.9091C192.372 49.9091 191.188 50.2737 190.241 51.0028C189.304 51.7225 188.598 52.7027 188.125 53.9432C187.661 55.1742 187.429 56.5568 187.429 58.0909C187.429 59.6439 187.666 61.0549 188.139 62.3239C188.622 63.5833 189.332 64.5871 190.27 65.3352C191.217 66.0739 192.391 66.4432 193.793 66.4432ZM209.943 69V47.1818H213.295V69H209.943ZM211.648 43.5455C210.994 43.5455 210.431 43.3229 209.957 42.8778C209.493 42.4328 209.261 41.8977 209.261 41.2727C209.261 40.6477 209.493 40.1127 209.957 39.6676C210.431 39.2225 210.994 39 211.648 39C212.301 39 212.86 39.2225 213.324 39.6676C213.797 40.1127 214.034 40.6477 214.034 41.2727C214.034 41.8977 213.797 42.4328 213.324 42.8778C212.86 43.3229 212.301 43.5455 211.648 43.5455ZM228.299 69.4545C226.254 69.4545 224.492 68.9716 223.015 68.0057C221.538 67.0398 220.401 65.7093 219.606 64.0142C218.81 62.3191 218.413 60.3826 218.413 58.2045C218.413 55.9886 218.82 54.0331 219.634 52.3381C220.458 50.6335 221.604 49.303 223.072 48.3466C224.549 47.3807 226.272 46.8977 228.242 46.8977C229.776 46.8977 231.159 47.1818 232.39 47.75C233.621 48.3182 234.629 49.1136 235.415 50.1364C236.201 51.1591 236.689 52.3523 236.879 53.7159H233.526C233.271 52.7216 232.702 51.8409 231.822 51.0739C230.951 50.2973 229.776 49.9091 228.299 49.9091C226.992 49.9091 225.846 50.25 224.862 50.9318C223.886 51.6042 223.124 52.5559 222.575 53.7869C222.035 55.0085 221.765 56.4432 221.765 58.0909C221.765 59.7765 222.03 61.2443 222.56 62.4943C223.1 63.7443 223.858 64.715 224.833 65.4062C225.818 66.0975 226.973 66.4432 228.299 66.4432C229.17 66.4432 229.961 66.2917 230.671 65.9886C231.381 65.6856 231.983 65.25 232.475 64.6818C232.968 64.1136 233.318 63.4318 233.526 62.6364H236.879C236.689 63.9242 236.22 65.0843 235.472 66.1165C234.734 67.1392 233.754 67.9536 232.532 68.5597C231.32 69.1562 229.909 69.4545 228.299 69.4545ZM248.2 69.5114C246.817 69.5114 245.562 69.2509 244.435 68.7301C243.308 68.1998 242.414 67.4375 241.751 66.4432C241.088 65.4394 240.756 64.2273 240.756 62.8068C240.756 61.5568 241.003 60.5436 241.495 59.767C241.987 58.9811 242.646 58.3655 243.469 57.9205C244.293 57.4754 245.202 57.1439 246.197 56.9261C247.201 56.6989 248.209 56.5189 249.222 56.3864C250.548 56.2159 251.623 56.0881 252.447 56.0028C253.28 55.9081 253.886 55.7519 254.265 55.5341C254.653 55.3163 254.847 54.9375 254.847 54.3977V54.2841C254.847 52.8826 254.464 51.7936 253.697 51.017C252.939 50.2405 251.789 49.8523 250.245 49.8523C248.645 49.8523 247.39 50.2027 246.481 50.9034C245.572 51.6042 244.933 52.3523 244.563 53.1477L241.381 52.0114C241.95 50.6856 242.707 49.6534 243.654 48.9148C244.611 48.1667 245.652 47.6458 246.779 47.3523C247.915 47.0492 249.033 46.8977 250.131 46.8977C250.832 46.8977 251.637 46.983 252.546 47.1534C253.465 47.3144 254.35 47.6506 255.202 48.1619C256.064 48.6733 256.779 49.4451 257.347 50.4773C257.915 51.5095 258.2 52.892 258.2 54.625V69H254.847V66.0455H254.677C254.45 66.5189 254.071 67.0256 253.54 67.5653C253.01 68.1051 252.305 68.5644 251.424 68.9432C250.543 69.322 249.469 69.5114 248.2 69.5114ZM248.711 66.5C250.037 66.5 251.154 66.2396 252.063 65.7188C252.982 65.1979 253.673 64.5256 254.137 63.7017C254.611 62.8778 254.847 62.0114 254.847 61.1023V58.0341C254.705 58.2045 254.393 58.3608 253.91 58.5028C253.436 58.6354 252.887 58.7538 252.262 58.858C251.647 58.9527 251.045 59.0379 250.458 59.1136C249.88 59.1799 249.412 59.2367 249.052 59.2841C248.181 59.3977 247.366 59.5824 246.609 59.8381C245.861 60.0843 245.254 60.4583 244.79 60.9602C244.336 61.4527 244.109 62.125 244.109 62.9773C244.109 64.142 244.54 65.0227 245.401 65.6193C246.272 66.2064 247.376 66.5 248.711 66.5ZM273.807 47.1818V50.0227H262.5V47.1818H273.807ZM265.795 41.9545H269.148V62.75C269.148 63.697 269.285 64.4072 269.56 64.8807C269.844 65.3447 270.204 65.6572 270.639 65.8182C271.084 65.9697 271.553 66.0455 272.045 66.0455C272.415 66.0455 272.718 66.0265 272.955 65.9886C273.191 65.9413 273.381 65.9034 273.523 65.875L274.205 68.8864C273.977 68.9716 273.66 69.0568 273.253 69.142C272.846 69.2367 272.33 69.2841 271.705 69.2841C270.758 69.2841 269.83 69.0805 268.92 68.6733C268.021 68.2661 267.273 67.6458 266.676 66.8125C266.089 65.9792 265.795 64.928 265.795 63.6591V41.9545ZM287.763 69.4545C285.661 69.4545 283.847 68.9905 282.322 68.0625C280.807 67.125 279.638 65.8182 278.814 64.142C278 62.4564 277.592 60.4962 277.592 58.2614C277.592 56.0265 278 54.0568 278.814 52.3523C279.638 50.6383 280.784 49.303 282.251 48.3466C283.729 47.3807 285.452 46.8977 287.422 46.8977C288.558 46.8977 289.68 47.0871 290.788 47.4659C291.896 47.8447 292.905 48.4602 293.814 49.3125C294.723 50.1553 295.447 51.2727 295.987 52.6648C296.527 54.0568 296.797 55.7708 296.797 57.8068V59.2273H279.979V56.3295H293.388C293.388 55.0985 293.142 54 292.649 53.0341C292.166 52.0682 291.475 51.3059 290.575 50.7472C289.685 50.1884 288.634 49.9091 287.422 49.9091C286.087 49.9091 284.931 50.2405 283.956 50.9034C282.99 51.5568 282.247 52.4091 281.726 53.4602C281.205 54.5114 280.945 55.6383 280.945 56.8409V58.7727C280.945 60.4205 281.229 61.8172 281.797 62.9631C282.375 64.0994 283.175 64.9659 284.197 65.5625C285.22 66.1496 286.409 66.4432 287.763 66.4432C288.643 66.4432 289.439 66.3201 290.149 66.0739C290.869 65.8182 291.489 65.4394 292.01 64.9375C292.531 64.4261 292.933 63.7917 293.217 63.0341L296.456 63.9432C296.115 65.0417 295.542 66.0076 294.737 66.8409C293.932 67.6648 292.938 68.3087 291.754 68.7727C290.571 69.2273 289.24 69.4545 287.763 69.4545ZM310.135 69.4545C308.317 69.4545 306.712 68.9953 305.32 68.0767C303.928 67.1487 302.839 65.8419 302.053 64.1562C301.267 62.4612 300.874 60.4583 300.874 58.1477C300.874 55.8561 301.267 53.8674 302.053 52.1818C302.839 50.4962 303.932 49.1941 305.334 48.2756C306.735 47.357 308.355 46.8977 310.192 46.8977C311.612 46.8977 312.734 47.1345 313.558 47.608C314.392 48.072 315.026 48.6023 315.462 49.1989C315.907 49.786 316.252 50.2689 316.499 50.6477H316.783V39.9091H320.135V69H316.896V65.6477H316.499C316.252 66.0455 315.902 66.5473 315.447 67.1534C314.993 67.75 314.344 68.285 313.501 68.7585C312.659 69.2225 311.536 69.4545 310.135 69.4545ZM310.589 66.4432C311.934 66.4432 313.071 66.0928 313.999 65.392C314.927 64.6818 315.632 63.7017 316.115 62.4517C316.598 61.1922 316.839 59.7386 316.839 58.0909C316.839 56.4621 316.603 55.0369 316.129 53.8153C315.656 52.5843 314.955 51.6278 314.027 50.946C313.099 50.2547 311.953 49.9091 310.589 49.9091C309.169 49.9091 307.985 50.2737 307.038 51.0028C306.101 51.7225 305.395 52.7027 304.922 53.9432C304.458 55.1742 304.226 56.5568 304.226 58.0909C304.226 59.6439 304.463 61.0549 304.936 62.3239C305.419 63.5833 306.129 64.5871 307.067 65.3352C308.014 66.0739 309.188 66.4432 310.589 66.4432ZM339.638 69H335.945L346.626 39.9091H350.263L360.945 69H357.251L348.558 44.5114H348.331L339.638 69ZM341.001 57.6364H355.888V60.7614H341.001V57.6364ZM365.021 77.1818V47.1818H368.26V50.6477H368.658C368.904 50.2689 369.245 49.786 369.68 49.1989C370.125 48.6023 370.76 48.072 371.584 47.608C372.417 47.1345 373.544 46.8977 374.964 46.8977C376.802 46.8977 378.421 47.357 379.822 48.2756C381.224 49.1941 382.318 50.4962 383.104 52.1818C383.89 53.8674 384.283 55.8561 384.283 58.1477C384.283 60.4583 383.89 62.4612 383.104 64.1562C382.318 65.8419 381.229 67.1487 379.837 68.0767C378.445 68.9953 376.839 69.4545 375.021 69.4545C373.62 69.4545 372.498 69.2225 371.655 68.7585C370.812 68.285 370.163 67.75 369.709 67.1534C369.254 66.5473 368.904 66.0455 368.658 65.6477H368.374V77.1818H365.021ZM368.317 58.0909C368.317 59.7386 368.558 61.1922 369.041 62.4517C369.524 63.7017 370.23 64.6818 371.158 65.392C372.086 66.0928 373.222 66.4432 374.567 66.4432C375.968 66.4432 377.138 66.0739 378.075 65.3352C379.022 64.5871 379.732 63.5833 380.206 62.3239C380.689 61.0549 380.93 59.6439 380.93 58.0909C380.93 56.5568 380.694 55.1742 380.22 53.9432C379.756 52.7027 379.051 51.7225 378.104 51.0028C377.166 50.2737 375.987 49.9091 374.567 49.9091C373.203 49.9091 372.057 50.2547 371.129 50.946C370.201 51.6278 369.5 52.5843 369.027 53.8153C368.554 55.0369 368.317 56.4621 368.317 58.0909ZM389.396 77.1818V47.1818H392.635V50.6477H393.033C393.279 50.2689 393.62 49.786 394.055 49.1989C394.5 48.6023 395.135 48.072 395.959 47.608C396.792 47.1345 397.919 46.8977 399.339 46.8977C401.177 46.8977 402.796 47.357 404.197 48.2756C405.599 49.1941 406.693 50.4962 407.479 52.1818C408.265 53.8674 408.658 55.8561 408.658 58.1477C408.658 60.4583 408.265 62.4612 407.479 64.1562C406.693 65.8419 405.604 67.1487 404.212 68.0767C402.82 68.9953 401.214 69.4545 399.396 69.4545C397.995 69.4545 396.873 69.2225 396.03 68.7585C395.187 68.285 394.538 67.75 394.084 67.1534C393.629 66.5473 393.279 66.0455 393.033 65.6477H392.749V77.1818H389.396ZM392.692 58.0909C392.692 59.7386 392.933 61.1922 393.416 62.4517C393.899 63.7017 394.605 64.6818 395.533 65.392C396.461 66.0928 397.597 66.4432 398.942 66.4432C400.343 66.4432 401.513 66.0739 402.45 65.3352C403.397 64.5871 404.107 63.5833 404.581 62.3239C405.064 61.0549 405.305 59.6439 405.305 58.0909C405.305 56.5568 405.069 55.1742 404.595 53.9432C404.131 52.7027 403.426 51.7225 402.479 51.0028C401.541 50.2737 400.362 49.9091 398.942 49.9091C397.578 49.9091 396.432 50.2547 395.504 50.946C394.576 51.6278 393.875 52.5843 393.402 53.8153C392.929 55.0369 392.692 56.4621 392.692 58.0909ZM417.124 39.9091V69H413.771V39.9091H417.124ZM423.263 69V47.1818H426.616V69H423.263ZM424.968 43.5455C424.315 43.5455 423.751 43.3229 423.278 42.8778C422.814 42.4328 422.582 41.8977 422.582 41.2727C422.582 40.6477 422.814 40.1127 423.278 39.6676C423.751 39.2225 424.315 39 424.968 39C425.621 39 426.18 39.2225 426.644 39.6676C427.118 40.1127 427.354 40.6477 427.354 41.2727C427.354 41.8977 427.118 42.4328 426.644 42.8778C426.18 43.3229 425.621 43.5455 424.968 43.5455ZM441.903 69.4545C439.801 69.4545 437.988 68.9905 436.463 68.0625C434.948 67.125 433.778 65.8182 432.955 64.142C432.14 62.4564 431.733 60.4962 431.733 58.2614C431.733 56.0265 432.14 54.0568 432.955 52.3523C433.778 50.6383 434.924 49.303 436.392 48.3466C437.869 47.3807 439.593 46.8977 441.562 46.8977C442.699 46.8977 443.821 47.0871 444.929 47.4659C446.037 47.8447 447.045 48.4602 447.955 49.3125C448.864 50.1553 449.588 51.2727 450.128 52.6648C450.668 54.0568 450.938 55.7708 450.938 57.8068V59.2273H434.119V56.3295H447.528C447.528 55.0985 447.282 54 446.79 53.0341C446.307 52.0682 445.616 51.3059 444.716 50.7472C443.826 50.1884 442.775 49.9091 441.562 49.9091C440.227 49.9091 439.072 50.2405 438.097 50.9034C437.131 51.5568 436.387 52.4091 435.866 53.4602C435.346 54.5114 435.085 55.6383 435.085 56.8409V58.7727C435.085 60.4205 435.369 61.8172 435.938 62.9631C436.515 64.0994 437.315 64.9659 438.338 65.5625C439.361 66.1496 440.549 66.4432 441.903 66.4432C442.784 66.4432 443.58 66.3201 444.29 66.0739C445.009 65.8182 445.63 65.4394 446.151 64.9375C446.671 64.4261 447.074 63.7917 447.358 63.0341L450.597 63.9432C450.256 65.0417 449.683 66.0076 448.878 66.8409C448.073 67.6648 447.079 68.3087 445.895 68.7727C444.711 69.2273 443.381 69.4545 441.903 69.4545ZM464.276 69.4545C462.457 69.4545 460.852 68.9953 459.46 68.0767C458.068 67.1487 456.979 65.8419 456.193 64.1562C455.407 62.4612 455.014 60.4583 455.014 58.1477C455.014 55.8561 455.407 53.8674 456.193 52.1818C456.979 50.4962 458.073 49.1941 459.474 48.2756C460.876 47.357 462.495 46.8977 464.332 46.8977C465.753 46.8977 466.875 47.1345 467.699 47.608C468.532 48.072 469.167 48.6023 469.602 49.1989C470.047 49.786 470.393 50.2689 470.639 50.6477H470.923V39.9091H474.276V69H471.037V65.6477H470.639C470.393 66.0455 470.043 66.5473 469.588 67.1534C469.134 67.75 468.485 68.285 467.642 68.7585C466.799 69.2225 465.677 69.4545 464.276 69.4545ZM464.73 66.4432C466.075 66.4432 467.211 66.0928 468.139 65.392C469.067 64.6818 469.773 63.7017 470.256 62.4517C470.739 61.1922 470.98 59.7386 470.98 58.0909C470.98 56.4621 470.743 55.0369 470.27 53.8153C469.796 52.5843 469.096 51.6278 468.168 50.946C467.24 50.2547 466.094 49.9091 464.73 49.9091C463.31 49.9091 462.126 50.2737 461.179 51.0028C460.241 51.7225 459.536 52.7027 459.062 53.9432C458.598 55.1742 458.366 56.5568 458.366 58.0909C458.366 59.6439 458.603 61.0549 459.077 62.3239C459.56 63.5833 460.27 64.5871 461.207 65.3352C462.154 66.0739 463.329 66.4432 464.73 66.4432ZM492.585 69V39.9091H510.142V43.0341H496.108V52.8636H509.233V55.9886H496.108V65.875H510.369V69H492.585ZM519.389 55.875V69H516.037V47.1818H519.276V50.5909H519.56C520.071 49.483 520.848 48.5928 521.889 47.9205C522.931 47.2386 524.276 46.8977 525.923 46.8977C527.401 46.8977 528.693 47.2008 529.801 47.8068C530.909 48.4034 531.771 49.3125 532.386 50.5341C533.002 51.7462 533.31 53.2803 533.31 55.1364V69H529.957V55.3636C529.957 53.6496 529.512 52.3144 528.622 51.358C527.732 50.392 526.51 49.9091 524.957 49.9091C523.887 49.9091 522.931 50.1411 522.088 50.6051C521.255 51.0691 520.597 51.7462 520.114 52.6364C519.631 53.5265 519.389 54.6061 519.389 55.875ZM548.583 69.4545C546.481 69.4545 544.667 68.9905 543.143 68.0625C541.628 67.125 540.458 65.8182 539.634 64.142C538.82 62.4564 538.413 60.4962 538.413 58.2614C538.413 56.0265 538.82 54.0568 539.634 52.3523C540.458 50.6383 541.604 49.303 543.072 48.3466C544.549 47.3807 546.272 46.8977 548.242 46.8977C549.379 46.8977 550.501 47.0871 551.609 47.4659C552.717 47.8447 553.725 48.4602 554.634 49.3125C555.543 50.1553 556.268 51.2727 556.808 52.6648C557.347 54.0568 557.617 55.7708 557.617 57.8068V59.2273H540.799V56.3295H554.208C554.208 55.0985 553.962 54 553.469 53.0341C552.987 52.0682 552.295 51.3059 551.396 50.7472C550.505 50.1884 549.454 49.9091 548.242 49.9091C546.907 49.9091 545.752 50.2405 544.776 50.9034C543.81 51.5568 543.067 52.4091 542.546 53.4602C542.025 54.5114 541.765 55.6383 541.765 56.8409V58.7727C541.765 60.4205 542.049 61.8172 542.617 62.9631C543.195 64.0994 543.995 64.9659 545.018 65.5625C546.04 66.1496 547.229 66.4432 548.583 66.4432C549.464 66.4432 550.259 66.3201 550.969 66.0739C551.689 65.8182 552.309 65.4394 552.83 64.9375C553.351 64.4261 553.754 63.7917 554.038 63.0341L557.276 63.9432C556.935 65.0417 556.362 66.0076 555.558 66.8409C554.753 67.6648 553.758 68.3087 552.575 68.7727C551.391 69.2273 550.06 69.4545 548.583 69.4545ZM562.717 69V47.1818H565.955V50.4773H566.183C566.58 49.3977 567.3 48.5218 568.342 47.8494C569.383 47.1771 570.558 46.8409 571.864 46.8409C572.111 46.8409 572.418 46.8456 572.788 46.8551C573.157 46.8646 573.436 46.8788 573.626 46.8977V50.3068C573.512 50.2784 573.252 50.2358 572.844 50.179C572.447 50.1127 572.025 50.0795 571.58 50.0795C570.52 50.0795 569.573 50.3021 568.739 50.7472C567.915 51.1828 567.262 51.7888 566.779 52.5653C566.306 53.3324 566.069 54.2083 566.069 55.1932V69H562.717ZM585.742 77.6364C584.123 77.6364 582.731 77.428 581.566 77.0114C580.401 76.6042 579.431 76.0644 578.654 75.392C577.887 74.7292 577.276 74.0189 576.822 73.2614L579.492 71.3864C579.795 71.7841 580.179 72.2386 580.643 72.75C581.107 73.2708 581.741 73.7206 582.546 74.0994C583.361 74.4877 584.426 74.6818 585.742 74.6818C587.504 74.6818 588.957 74.2557 590.103 73.4034C591.249 72.5511 591.822 71.2159 591.822 69.3977V64.9659H591.538C591.291 65.3636 590.941 65.8561 590.487 66.4432C590.041 67.0208 589.397 67.5369 588.555 67.9915C587.721 68.4366 586.594 68.6591 585.174 68.6591C583.413 68.6591 581.831 68.2424 580.43 67.4091C579.038 66.5758 577.934 65.3636 577.12 63.7727C576.315 62.1818 575.913 60.25 575.913 57.9773C575.913 55.7424 576.306 53.7964 577.092 52.1392C577.878 50.4725 578.971 49.1847 580.373 48.2756C581.774 47.357 583.394 46.8977 585.231 46.8977C586.651 46.8977 587.778 47.1345 588.612 47.608C589.454 48.072 590.098 48.6023 590.543 49.1989C590.998 49.786 591.348 50.2689 591.594 50.6477H591.935V47.1818H595.174V69.625C595.174 71.5 594.748 73.0246 593.896 74.1989C593.053 75.3826 591.916 76.2491 590.487 76.7983C589.066 77.357 587.485 77.6364 585.742 77.6364ZM585.629 65.6477C586.973 65.6477 588.11 65.34 589.038 64.7244C589.966 64.1089 590.671 63.2235 591.154 62.0682C591.637 60.9129 591.879 59.5303 591.879 57.9205C591.879 56.3485 591.642 54.9612 591.168 53.7585C590.695 52.5559 589.994 51.6136 589.066 50.9318C588.138 50.25 586.992 49.9091 585.629 49.9091C584.208 49.9091 583.024 50.2689 582.077 50.9886C581.14 51.7083 580.434 52.6742 579.961 53.8864C579.497 55.0985 579.265 56.4432 579.265 57.9205C579.265 59.4356 579.502 60.7756 579.975 61.9403C580.458 63.0956 581.168 64.0047 582.106 64.6676C583.053 65.321 584.227 65.6477 585.629 65.6477ZM601.31 69V47.1818H604.663V69H601.31ZM603.015 43.5455C602.362 43.5455 601.798 43.3229 601.325 42.8778C600.861 42.4328 600.629 41.8977 600.629 41.2727C600.629 40.6477 600.861 40.1127 601.325 39.6676C601.798 39.2225 602.362 39 603.015 39C603.668 39 604.227 39.2225 604.691 39.6676C605.165 40.1127 605.401 40.6477 605.401 41.2727C605.401 41.8977 605.165 42.4328 604.691 42.8778C604.227 43.3229 603.668 43.5455 603.015 43.5455ZM626.257 52.0682L623.246 52.9205C623.056 52.4186 622.777 51.9309 622.408 51.4574C622.048 50.9744 621.555 50.5767 620.93 50.2642C620.305 49.9517 619.505 49.7955 618.53 49.7955C617.195 49.7955 616.082 50.1032 615.192 50.7188C614.311 51.3248 613.871 52.0966 613.871 53.0341C613.871 53.8674 614.174 54.5256 614.78 55.0085C615.386 55.4915 616.333 55.8939 617.621 56.2159L620.859 57.0114C622.81 57.4848 624.264 58.2093 625.22 59.1847C626.177 60.1506 626.655 61.3958 626.655 62.9205C626.655 64.1705 626.295 65.2879 625.575 66.2727C624.865 67.2576 623.871 68.0341 622.592 68.6023C621.314 69.1705 619.827 69.4545 618.132 69.4545C615.907 69.4545 614.065 68.9716 612.607 68.0057C611.148 67.0398 610.225 65.6288 609.837 63.7727L613.018 62.9773C613.321 64.1515 613.894 65.0322 614.737 65.6193C615.589 66.2064 616.702 66.5 618.075 66.5C619.638 66.5 620.878 66.1686 621.797 65.5057C622.725 64.8333 623.189 64.0284 623.189 63.0909C623.189 62.3333 622.924 61.6989 622.393 61.1875C621.863 60.6667 621.049 60.2784 619.95 60.0227L616.314 59.1705C614.316 58.697 612.848 57.9631 611.911 56.9688C610.982 55.965 610.518 54.7102 610.518 53.2045C610.518 51.9735 610.864 50.8845 611.555 49.9375C612.256 48.9905 613.208 48.2472 614.411 47.7074C615.623 47.1676 616.996 46.8977 618.53 46.8977C620.689 46.8977 622.384 47.3712 623.615 48.3182C624.856 49.2652 625.736 50.5152 626.257 52.0682ZM641.19 47.1818V50.0227H629.883V47.1818H641.19ZM633.178 41.9545H636.531V62.75C636.531 63.697 636.668 64.4072 636.942 64.8807C637.227 65.3447 637.586 65.6572 638.022 65.8182C638.467 65.9697 638.936 66.0455 639.428 66.0455C639.798 66.0455 640.101 66.0265 640.337 65.9886C640.574 65.9413 640.763 65.9034 640.906 65.875L641.587 68.8864C641.36 68.9716 641.043 69.0568 640.636 69.142C640.228 69.2367 639.712 69.2841 639.087 69.2841C638.14 69.2841 637.212 69.0805 636.303 68.6733C635.404 68.2661 634.656 67.6458 634.059 66.8125C633.472 65.9792 633.178 64.928 633.178 63.6591V41.9545ZM646.232 69V47.1818H649.585V69H646.232ZM647.937 43.5455C647.283 43.5455 646.72 43.3229 646.246 42.8778C645.782 42.4328 645.55 41.8977 645.55 41.2727C645.55 40.6477 645.782 40.1127 646.246 39.6676C646.72 39.2225 647.283 39 647.937 39C648.59 39 649.149 39.2225 649.613 39.6676C650.086 40.1127 650.323 40.6477 650.323 41.2727C650.323 41.8977 650.086 42.4328 649.613 42.8778C649.149 43.3229 648.59 43.5455 647.937 43.5455ZM664.588 69.4545C662.543 69.4545 660.781 68.9716 659.304 68.0057C657.827 67.0398 656.69 65.7093 655.895 64.0142C655.099 62.3191 654.702 60.3826 654.702 58.2045C654.702 55.9886 655.109 54.0331 655.923 52.3381C656.747 50.6335 657.893 49.303 659.361 48.3466C660.838 47.3807 662.562 46.8977 664.531 46.8977C666.065 46.8977 667.448 47.1818 668.679 47.75C669.91 48.3182 670.919 49.1136 671.705 50.1364C672.491 51.1591 672.978 52.3523 673.168 53.7159H669.815C669.56 52.7216 668.991 51.8409 668.111 51.0739C667.24 50.2973 666.065 49.9091 664.588 49.9091C663.281 49.9091 662.135 50.25 661.151 50.9318C660.175 51.6042 659.413 52.5559 658.864 53.7869C658.324 55.0085 658.054 56.4432 658.054 58.0909C658.054 59.7765 658.319 61.2443 658.849 62.4943C659.389 63.7443 660.147 64.715 661.122 65.4062C662.107 66.0975 663.262 66.4432 664.588 66.4432C665.459 66.4432 666.25 66.2917 666.96 65.9886C667.67 65.6856 668.272 65.25 668.764 64.6818C669.257 64.1136 669.607 63.4318 669.815 62.6364H673.168C672.978 63.9242 672.509 65.0843 671.761 66.1165C671.023 67.1392 670.043 67.9536 668.821 68.5597C667.609 69.1562 666.198 69.4545 664.588 69.4545ZM693.523 52.0682L690.511 52.9205C690.322 52.4186 690.043 51.9309 689.673 51.4574C689.313 50.9744 688.821 50.5767 688.196 50.2642C687.571 49.9517 686.771 49.7955 685.795 49.7955C684.46 49.7955 683.348 50.1032 682.457 50.7188C681.577 51.3248 681.136 52.0966 681.136 53.0341C681.136 53.8674 681.439 54.5256 682.045 55.0085C682.652 55.4915 683.598 55.8939 684.886 56.2159L688.125 57.0114C690.076 57.4848 691.529 58.2093 692.486 59.1847C693.442 60.1506 693.92 61.3958 693.92 62.9205C693.92 64.1705 693.561 65.2879 692.841 66.2727C692.131 67.2576 691.136 68.0341 689.858 68.6023C688.58 69.1705 687.093 69.4545 685.398 69.4545C683.172 69.4545 681.33 68.9716 679.872 68.0057C678.414 67.0398 677.491 65.6288 677.102 63.7727L680.284 62.9773C680.587 64.1515 681.16 65.0322 682.003 65.6193C682.855 66.2064 683.968 66.5 685.341 66.5C686.903 66.5 688.144 66.1686 689.062 65.5057C689.991 64.8333 690.455 64.0284 690.455 63.0909C690.455 62.3333 690.189 61.6989 689.659 61.1875C689.129 60.6667 688.314 60.2784 687.216 60.0227L683.58 59.1705C681.581 58.697 680.114 57.9631 679.176 56.9688C678.248 55.965 677.784 54.7102 677.784 53.2045C677.784 51.9735 678.13 50.8845 678.821 49.9375C679.522 48.9905 680.473 48.2472 681.676 47.7074C682.888 47.1676 684.261 46.8977 685.795 46.8977C687.955 46.8977 689.65 47.3712 690.881 48.3182C692.121 49.2652 693.002 50.5152 693.523 52.0682ZM710.16 69V66.4432L719.762 55.9318C720.889 54.7008 721.817 53.6307 722.546 52.7216C723.275 51.803 723.815 50.9413 724.165 50.1364C724.525 49.322 724.705 48.4697 724.705 47.5795C724.705 46.5568 724.459 45.6714 723.967 44.9233C723.484 44.1752 722.821 43.5975 721.978 43.1903C721.135 42.7831 720.188 42.5795 719.137 42.5795C718.02 42.5795 717.044 42.8116 716.211 43.2756C715.387 43.7301 714.748 44.3693 714.293 45.1932C713.848 46.017 713.626 46.983 713.626 48.0909H710.273C710.273 46.3864 710.666 44.8902 711.452 43.6023C712.238 42.3144 713.308 41.3106 714.663 40.5909C716.026 39.8712 717.556 39.5114 719.251 39.5114C720.955 39.5114 722.466 39.8712 723.782 40.5909C725.098 41.3106 726.13 42.2812 726.879 43.5028C727.627 44.7244 728.001 46.0833 728.001 47.5795C728.001 48.6496 727.807 49.696 727.418 50.7188C727.04 51.732 726.377 52.8636 725.43 54.1136C724.492 55.3542 723.19 56.8693 721.523 58.6591L714.989 65.6477V65.875H728.512V69H710.16Z" fill="white"/>
</g>
<g filter="url(#filter4_d_1_469)">
<rect x="30" y="130" width="80" height="340" rx="10" fill="url(#paint2_linear_1_469)"/>
<mask id="mask12_1_469" style="mask-type:alpha" maskUnits="userSpaceOnUse" x="40" y="140" width="60" height="60">
<rect x="40" y="140" width="60" height="60" fill="#D9D9D9"/>
</mask>
<g mask="url(#mask12_1_469)">
<path d="M63.125 195L62.125 187C61.5833 186.792 61.0729 186.542 60.5938 186.25C60.1146 185.958 59.6458 185.646 59.1875 185.312L51.75 188.438L44.875 176.562L51.3125 171.688C51.2708 171.396 51.25 171.115 51.25 170.844V169.156C51.25 168.885 51.2708 168.604 51.3125 168.312L44.875 163.438L51.75 151.562L59.1875 154.688C59.6458 154.354 60.125 154.042 60.625 153.75C61.125 153.458 61.625 153.208 62.125 153L63.125 145H76.875L77.875 153C78.4167 153.208 78.9271 153.458 79.4062 153.75C79.8854 154.042 80.3542 154.354 80.8125 154.688L88.25 151.562L95.125 163.438L88.6875 168.312C88.7292 168.604 88.75 168.885 88.75 169.156V170.844C88.75 171.115 88.7083 171.396 88.625 171.688L95.0625 176.562L88.1875 188.438L80.8125 185.312C80.3542 185.646 79.875 185.958 79.375 186.25C78.875 186.542 78.375 186.792 77.875 187L76.875 195H63.125ZM67.5 190H72.4375L73.3125 183.375C74.6042 183.042 75.8021 182.552 76.9062 181.906C78.0104 181.26 79.0208 180.479 79.9375 179.562L86.125 182.125L88.5625 177.875L83.1875 173.813C83.3958 173.229 83.5417 172.615 83.625 171.969C83.7083 171.323 83.75 170.667 83.75 170C83.75 169.333 83.7083 168.677 83.625 168.031C83.5417 167.385 83.3958 166.771 83.1875 166.188L88.5625 162.125L86.125 157.875L79.9375 160.5C79.0208 159.542 78.0104 158.74 76.9062 158.094C75.8021 157.448 74.6042 156.958 73.3125 156.625L72.5 150H67.5625L66.6875 156.625C65.3958 156.958 64.1979 157.448 63.0938 158.094C61.9896 158.74 60.9792 159.521 60.0625 160.438L53.875 157.875L51.4375 162.125L56.8125 166.125C56.6042 166.75 56.4583 167.375 56.375 168C56.2917 168.625 56.25 169.292 56.25 170C56.25 170.667 56.2917 171.313 56.375 171.938C56.4583 172.563 56.6042 173.188 56.8125 173.813L51.4375 177.875L53.875 182.125L60.0625 179.5C60.9792 180.458 61.9896 181.26 63.0938 181.906C64.1979 182.552 65.3958 183.042 66.6875 183.375L67.5 190ZM70.125 178.75C72.5417 178.75 74.6042 177.896 76.3125 176.188C78.0208 174.479 78.875 172.417 78.875 170C78.875 167.583 78.0208 165.521 76.3125 163.812C74.6042 162.104 72.5417 161.25 70.125 161.25C67.6667 161.25 65.5938 162.104 63.9062 163.812C62.2188 165.521 61.375 167.583 61.375 170C61.375 172.417 62.2188 174.479 63.9062 176.188C65.5938 177.896 67.6667 178.75 70.125 178.75Z" fill="#42C35E"/>
</g>
<mask id="mask13_1_469" style="mask-type:alpha" maskUnits="userSpaceOnUse" x="40" y="215" width="60" height="60">
<rect x="40" y="215" width="60" height="60" fill="#D9D9D9"/>
</mask>
<g mask="url(#mask13_1_469)">
<path d="M70 267.5C63.7083 267.5 58.3854 266.531 54.0312 264.594C49.6771 262.656 47.5 260.292 47.5 257.5V232.5C47.5 229.75 49.6979 227.396 54.0938 225.438C58.4896 223.479 63.7917 222.5 70 222.5C76.2083 222.5 81.5104 223.479 85.9062 225.438C90.3021 227.396 92.5 229.75 92.5 232.5V257.5C92.5 260.292 90.3229 262.656 85.9688 264.594C81.6146 266.531 76.2917 267.5 70 267.5ZM70 237.562C73.7083 237.562 77.4375 237.031 81.1875 235.969C84.9375 234.906 87.0417 233.771 87.5 232.562C87.0417 231.354 84.9479 230.208 81.2188 229.125C77.4896 228.042 73.75 227.5 70 227.5C66.2083 227.5 62.4896 228.031 58.8438 229.094C55.1979 230.156 53.0833 231.312 52.5 232.562C53.0833 233.812 55.1979 234.958 58.8438 236C62.4896 237.042 66.2083 237.562 70 237.562ZM70 250C71.75 250 73.4375 249.917 75.0625 249.75C76.6875 249.583 78.2396 249.344 79.7188 249.031C81.1979 248.719 82.5938 248.333 83.9062 247.875C85.2188 247.417 86.4167 246.896 87.5 246.313V238.812C86.4167 239.396 85.2188 239.917 83.9062 240.375C82.5938 240.833 81.1979 241.219 79.7188 241.531C78.2396 241.844 76.6875 242.083 75.0625 242.25C73.4375 242.417 71.75 242.5 70 242.5C68.25 242.5 66.5417 242.417 64.875 242.25C63.2083 242.083 61.6354 241.844 60.1562 241.531C58.6771 241.219 57.2917 240.833 56 240.375C54.7083 239.917 53.5417 239.396 52.5 238.812V246.313C53.5417 246.896 54.7083 247.417 56 247.875C57.2917 248.333 58.6771 248.719 60.1562 249.031C61.6354 249.344 63.2083 249.583 64.875 249.75C66.5417 249.917 68.25 250 70 250ZM70 262.5C71.9167 262.5 73.8646 262.354 75.8438 262.062C77.8229 261.771 79.6458 261.385 81.3125 260.906C82.9792 260.427 84.375 259.885 85.5 259.281C86.625 258.677 87.2917 258.062 87.5 257.438V251.313C86.4167 251.896 85.2188 252.417 83.9062 252.875C82.5938 253.333 81.1979 253.719 79.7188 254.031C78.2396 254.344 76.6875 254.583 75.0625 254.75C73.4375 254.917 71.75 255 70 255C68.25 255 66.5417 254.917 64.875 254.75C63.2083 254.583 61.6354 254.344 60.1562 254.031C58.6771 253.719 57.2917 253.333 56 252.875C54.7083 252.417 53.5417 251.896 52.5 251.313V257.5C52.7083 258.125 53.3646 258.729 54.4688 259.312C55.5729 259.896 56.9583 260.427 58.625 260.906C60.2917 261.385 62.125 261.771 64.125 262.062C66.125 262.354 68.0833 262.5 70 262.5Z" fill="#42C35E"/>
</g>
<mask id="mask14_1_469" style="mask-type:alpha" maskUnits="userSpaceOnUse" x="40" y="290" width="60" height="60">
<rect x="40" y="290" width="60" height="60" fill="#D9D9D9"/>
</mask>
<g mask="url(#mask14_1_469)">
<path d="M70 320C67.25 320 64.8958 319.021 62.9375 317.062C60.9792 315.104 60 312.75 60 310C60 307.25 60.9792 304.896 62.9375 302.938C64.8958 300.979 67.25 300 70 300C72.75 300 75.1042 300.979 77.0625 302.938C79.0208 304.896 80 307.25 80 310C80 312.75 79.0208 315.104 77.0625 317.062C75.1042 319.021 72.75 320 70 320ZM50 340V333C50 331.583 50.3646 330.281 51.0938 329.094C51.8229 327.906 52.7917 327 54 326.375C56.5833 325.083 59.2083 324.115 61.875 323.469C64.5417 322.823 67.25 322.5 70 322.5C72.75 322.5 75.4583 322.823 78.125 323.469C80.7917 324.115 83.4167 325.083 86 326.375C87.2083 327 88.1771 327.906 88.9062 329.094C89.6354 330.281 90 331.583 90 333V340H50ZM55 335H85V333C85 332.542 84.8854 332.125 84.6562 331.75C84.4271 331.375 84.125 331.083 83.75 330.875C81.5 329.75 79.2292 328.906 76.9375 328.344C74.6458 327.781 72.3333 327.5 70 327.5C67.6667 327.5 65.3542 327.781 63.0625 328.344C60.7708 328.906 58.5 329.75 56.25 330.875C55.875 331.083 55.5729 331.375 55.3438 331.75C55.1146 332.125 55 332.542 55 333V335ZM70 315C71.375 315 72.5521 314.51 73.5312 313.531C74.5104 312.552 75 311.375 75 310C75 308.625 74.5104 307.448 73.5312 306.469C72.5521 305.49 71.375 305 70 305C68.625 305 67.4479 305.49 66.4688 306.469C65.4896 307.448 65 308.625 65 310C65 311.375 65.4896 312.552 66.4688 313.531C67.4479 314.51 68.625 315 70 315Z" fill="#42C35E"/>
</g>
<rect x="38" y="137" width="65" height="65" rx="10" fill="white" fill-opacity="0.12"/>
</g>
</g>
<defs>
<filter id="filter0_d_1_469" x="26" y="30" width="88" height="88" filterUnits="userSpaceOnUse" color-interpolation-filters="sRGB">
<feFlood flood-opacity="0" result="BackgroundImageFix"/>
<feColorMatrix in="SourceAlpha" type="matrix" values="0 0 0 0 0 0 0 0 0 0 0 0 0 0 0 0 0 0 127 0" result="hardAlpha"/>
<feOffset dy="4"/>
<feGaussianBlur stdDeviation="2"/>
<feComposite in2="hardAlpha" operator="out"/>
<feColorMatrix type="matrix" values="0 0 0 0 0 0 0 0 0 0 0 0 0 0 0 0 0 0 0.25 0"/>
<feBlend mode="normal" in2="BackgroundImageFix" result="effect1_dropShadow_1_469"/>
<feBlend mode="normal" in="SourceGraphic" in2="effect1_dropShadow_1_469" result="shape"/>
</filter>
<filter id="filter1_d_1_469" x="128.818" y="81.6364" width="60.6365" height="32.7273" filterUnits="userSpaceOnUse" color-interpolation-filters="sRGB">
<feFlood flood-opacity="0" result="BackgroundImageFix"/>
<feColorMatrix in="SourceAlpha" type="matrix" values="0 0 0 0 0 0 0 0 0 0 0 0 0 0 0 0 0 0 127 0" result="hardAlpha"/>
<feOffset dy="4"/>
<feGaussianBlur stdDeviation="2"/>
<feComposite in2="hardAlpha" operator="out"/>
<feColorMatrix type="matrix" values="0 0 0 0 0 0 0 0 0 0 0 0 0 0 0 0 0 0 0.25 0"/>
<feBlend mode="normal" in2="BackgroundImageFix" result="effect1_dropShadow_1_469"/>
<feBlend mode="normal" in="SourceGraphic" in2="effect1_dropShadow_1_469" result="shape"/>
</filter>
<filter id="filter2_d_1_469" x="126" y="155" width="258" height="323" filterUnits="userSpaceOnUse" color-interpolation-filters="sRGB">
<feFlood flood-opacity="0" result="BackgroundImageFix"/>
<feColorMatrix in="SourceAlpha" type="matrix" values="0 0 0 0 0 0 0 0 0 0 0 0 0 0 0 0 0 0 127 0" result="hardAlpha"/>
<feOffset dy="4"/>
<feGaussianBlur stdDeviation="2"/>
<feComposite in2="hardAlpha" operator="out"/>
<feColorMatrix type="matrix" values="0 0 0 0 0 0 0 0 0 0 0 0 0 0 0 0 0 0 0.25 0"/>
<feBlend mode="normal" in2="BackgroundImageFix" result="effect1_dropShadow_1_469"/>
<feBlend mode="normal" in="SourceGraphic" in2="effect1_dropShadow_1_469" result="shape"/>
</filter>
<filter id="filter3_d_1_469" x="129.523" y="39" width="602.99" height="46.6364" filterUnits="userSpaceOnUse" color-interpolation-filters="sRGB">
<feFlood flood-opacity="0" result="BackgroundImageFix"/>
<feColorMatrix in="SourceAlpha" type="matrix" values="0 0 0 0 0 0 0 0 0 0 0 0 0 0 0 0 0 0 127 0" result="hardAlpha"/>
<feOffset dy="4"/>
<feGaussianBlur stdDeviation="2"/>
<feComposite in2="hardAlpha" operator="out"/>
<feColorMatrix type="matrix" values="0 0 0 0 0 0 0 0 0 0 0 0 0 0 0 0 0 0 0.25 0"/>
<feBlend mode="normal" in2="BackgroundImageFix" result="effect1_dropShadow_1_469"/>
<feBlend mode="normal" in="SourceGraphic" in2="effect1_dropShadow_1_469" result="shape"/>
</filter>
<filter id="filter4_d_1_469" x="26" y="130" width="88" height="348" filterUnits="userSpaceOnUse" color-interpolation-filters="sRGB">
<feFlood flood-opacity="0" result="BackgroundImageFix"/>
<feColorMatrix in="SourceAlpha" type="matrix" values="0 0 0 0 0 0 0 0 0 0 0 0 0 0 0 0 0 0 127 0" result="hardAlpha"/>
<feOffset dy="4"/>
<feGaussianBlur stdDeviation="2"/>
<feComposite in2="hardAlpha" operator="out"/>
<feColorMatrix type="matrix" values="0 0 0 0 0 0 0 0 0 0 0 0 0 0 0 0 0 0 0.25 0"/>
<feBlend mode="normal" in2="BackgroundImageFix" result="effect1_dropShadow_1_469"/>
<feBlend mode="normal" in="SourceGraphic" in2="effect1_dropShadow_1_469" result="shape"/>
</filter>
<linearGradient id="paint0_linear_1_469" x1="400" y1="0" x2="400" y2="500" gradientUnits="userSpaceOnUse">
<stop stop-color="#2B2A33"/>
<stop offset="1" stop-color="#4E4D59"/>
</linearGradient>
<linearGradient id="paint1_linear_1_469" x1="70" y1="30" x2="70" y2="110" gradientUnits="userSpaceOnUse">
<stop stop-color="#42C35E"/>
<stop offset="1" stop-color="#2564C3"/>
</linearGradient>
<linearGradient id="paint2_linear_1_469" x1="70" y1="130" x2="70" y2="470" gradientUnits="userSpaceOnUse">
<stop stop-color="#2D5F9B"/>
<stop offset="1" stop-color="#0D1D47"/>
</linearGradient>
<clipPath id="clip0_1_469">
<rect width="800" height="500" fill="white"/>
</clipPath>
<clipPath id="clip1_1_469">
<rect width="80" height="80" fill="white" transform="translate(30 30)"/>
</clipPath>
<clipPath id="clip2_1_469">
<rect width="250" height="340" fill="white" transform="translate(130 130)"/>
</clipPath>
</defs>
</svg>
